<svg xmlns="http://www.w3.org/2000/svg" viewBox="70.4 15.399999999999997 135.29999999999998 381.4">
  <path d="M79.6,201.4l44.6-25.8v-10.5l-44.6-25.7l-9.1,5.2v51.5L79.6,201.4z M137.9,308.7l0-51.5l-9.1-5.2l-44.6,25.8
	l0,10.5l44.6,25.8L137.9,308.7z M80.1,272.9l44.6-25.8v-10.5l-44.6-25.7l-9.1,5.2l0,51.5L80.1,272.9z M133.9,175.1l-44.6,25.8v10.5
	l44.6,25.7l9.1-5.2l0-51.5L133.9,175.1z M142.7,257.4l0,51.5l9.1,5.2l44.6-25.8l0-10.5l-44.6-25.8L142.7,257.4z M196.2,293.4
	l-44.6,25.8v10.5l44.6,25.7l9.1-5.2l0-51.5L196.2,293.4z M142.6,340l0,51.5l9.1,5.2l44.6-25.8l0-10.5l-44.6-25.8L142.6,340z
	 M137.9,154.8l0-51.5l-9.1-5.2l-44.6,25.8l0,10.5l44.6,25.8L137.9,154.8z M143,20.8l0,51.5l9.1,5.3l44.6-25.8l0-10.5l-44.6-25.8
	L143,20.8z M196.5,56.8l-44.6,25.8l0,10.5l44.6,25.7l9.1-5.2l0-51.5L196.5,56.8z M142.9,103.4l0,51.5l9.1,5.3l44.6-25.8l0-10.5
	L152,98.2L142.9,103.4z" stroke="#FF0000" stroke-width="0.1" fill="#000000"/>
</svg>