<?xml version="1.0" encoding="utf-8"?>
<!-- Generator: Adobe Illustrator 23.1.0, SVG Export Plug-In . SVG Version: 6.00 Build 0)  -->
<svg version="1.1"
	 id="svg4166" inkscape:export-filename="/Users/scottdodson/Pictures/Firestorm for Aurora/icon.png" inkscape:export-xdpi="90" inkscape:export-ydpi="90" inkscape:version="0.92.2 5c3e80d, 2017-08-06" sodipodi:docname="icon-rounded.svg" xmlns:cc="http://creativecommons.org/ns#" xmlns:dc="http://purl.org/dc/elements/1.1/" xmlns:inkscape="http://www.inkscape.org/namespaces/inkscape" xmlns:rdf="http://www.w3.org/1999/02/22-rdf-syntax-ns#" xmlns:sodipodi="http://sodipodi.sourceforge.net/DTD/sodipodi-0.dtd" xmlns:svg="http://www.w3.org/2000/svg"
	 xmlns="http://www.w3.org/2000/svg" xmlns:xlink="http://www.w3.org/1999/xlink" x="0px" y="0px" viewBox="0 0 512 512"
	 style="enable-background:new 0 0 512 512;" xml:space="preserve">
<style type="text/css">
	.st0{fill-rule:evenodd;clip-rule:evenodd;fill:#FF5252;stroke:#232228;stroke-width:1.4975;}
</style>
<sodipodi:namedview  bordercolor="#666666" borderopacity="1.0" id="base" inkscape:current-layer="layer1" inkscape:cx="230.20655" inkscape:cy="256" inkscape:document-units="px" inkscape:pageopacity="0.0" inkscape:pageshadow="2" inkscape:window-height="971" inkscape:window-maximized="1" inkscape:window-width="1920" inkscape:window-x="0" inkscape:window-y="1" inkscape:zoom="1.5507812" pagecolor="#ffffff" showgrid="false" units="px">
	</sodipodi:namedview>
<g id="layer1" transform="translate(0,-540.36216)" inkscape:groupmode="layer" inkscape:label="Layer 1">
	<g id="g4824" transform="translate(-638.2509,380.02484)">
		<path id="path5720-2-1-8-73-0-1" inkscape:connector-curvature="0" sodipodi:nodetypes="ccccccc" class="st0" d="M889,622.4
			l-25.8-44.6l-10.5,0L827,622.4l5.2,9.1l51.5,0L889,622.4z"/>
		<path id="path5720-2-1-8-2-5-3-21" inkscape:connector-curvature="0" sodipodi:nodetypes="ccccccc" class="st0" d="M961.6,622.5
			l-25.8-44.6l-10.5,0l-25.7,44.6l5.2,9.1l51.5,0L961.6,622.5z"/>
		<path id="path5720-2-1-8" inkscape:connector-curvature="0" sodipodi:nodetypes="ccccccc" class="st0" d="M816.5,371.4l-25.8-44.6
			l-10.5,0l-25.7,44.6l5.2,9.1l51.5,0L816.5,371.4z"/>
		<path id="path5720-2-1-8-2" inkscape:connector-curvature="0" sodipodi:nodetypes="ccccccc" class="st0" d="M1034,515.1
			l-25.8,44.6l-10.5,0L972,515.1l5.2-9.1l51.5,0L1034,515.1z"/>
		
			<path id="path5720-2-1-8-20" inkscape:connector-curvature="0" inkscape:transform-center-x="-20.352264" inkscape:transform-center-y="-68.690887" sodipodi:nodetypes="ccccccc" class="st0" d="
			M816.5,515l-25.8,44.6l-10.5,0L754.5,515l5.2-9.1l51.5,0L816.5,515z"/>
		<path id="path5720-2-1-8-73" inkscape:connector-curvature="0" sodipodi:nodetypes="ccccccc" class="st0" d="M997.8,452.3
			L972,496.9l-10.5,0l-25.7-44.6l5.2-9.1l51.5,0L997.8,452.3z"/>
		<path id="path5720-2-1-8-2-5" inkscape:connector-curvature="0" sodipodi:nodetypes="ccccccc" class="st0" d="M925.3,434.1
			l-25.8-44.6l-10.5,0l-25.7,44.6l5.2,9.1l51.5,0L925.3,434.1z"/>
		
			<path id="path5720-2-1-8-2-2" inkscape:connector-curvature="0" inkscape:transform-center-x="85.365818" inkscape:transform-center-y="124.5724" sodipodi:nodetypes="ccccccc" class="st0" d="
			M925.2,308.5l-25.8-44.6l-10.5,0l-25.7,44.6l5.2,9.1l51.5,0L925.2,308.5z"/>
		<path id="path5720-2-1-8-2-1" inkscape:connector-curvature="0" sodipodi:nodetypes="ccccccc" class="st0" d="M816.5,496.8
			l-25.8-44.6l-10.5,0l-25.7,44.6l5.2,9.1l51.5,0L816.5,496.8z"/>
		<path id="path5720-2-1-8-2-09" inkscape:connector-curvature="0" sodipodi:nodetypes="ccccccc" class="st0" d="M852.7,559.6
			L826.9,515l-10.5,0l-25.7,44.6l5.2,9.1l51.5,0L852.7,559.6z"/>
		<path id="path5720-2-1-8-73-5" inkscape:connector-curvature="0" sodipodi:nodetypes="ccccccc" class="st0" d="M997.8,559.7
			L972,515.1l-10.5,0l-25.7,44.6l5.2,9.1l51.5,0L997.8,559.7z"/>
		<path id="path5720-2-1-8-20-7-9" inkscape:connector-curvature="0" sodipodi:nodetypes="ccccccc" class="st0" d="M852.7,577.8
			l-25.8,44.6l-10.5,0l-25.7-44.6l5.2-9.1l51.5,0L852.7,577.8z"/>
		<path id="path5720-2-1-8-73-4" inkscape:connector-curvature="0" sodipodi:nodetypes="ccccccc" class="st0" d="M816.6,389.5
			l-25.8,44.6l-10.5,0l-25.7-44.6l5.2-9.1l51.5,0L816.6,389.5z"/>
		<path id="path5720-2-1-8-73-4-2" inkscape:connector-curvature="0" sodipodi:nodetypes="ccccccc" class="st0" d="M852.7,434.1
			l-25.8-44.6l-10.5,0l-25.7,44.6l5.2,9.1l51.5,0L852.7,434.1z"/>
		<path id="path5720-2-1-8-73-4-2-8" inkscape:connector-curvature="0" sodipodi:nodetypes="ccccccc" class="st0" d="M852.7,452.2
			l-25.8,44.6l-10.5,0l-25.7-44.6l5.2-9.1l51.5,0L852.7,452.2z"/>
		
			<path id="path5720-2-1-8-2-3-0" inkscape:connector-curvature="0" inkscape:transform-center-x="-55.089862" inkscape:transform-center-y="2.9760979" sodipodi:nodetypes="ccccccc" class="st0" d="
			M997.8,577.9L972,622.5l-10.5,0l-25.7-44.6l5.2-9.1l51.5,0L997.8,577.9z"/>
		
			<path id="path5720-2-1-8-2-3-71" inkscape:connector-curvature="0" inkscape:transform-center-x="-55.089862" inkscape:transform-center-y="2.9761052" sodipodi:nodetypes="ccccccc" class="st0" d="
			M925.2,326.7l-25.8,44.6l-10.5,0l-25.7-44.6l5.2-9.1l51.5,0L925.2,326.7z"/>
		
			<path id="path5720-2-1-8-2-3-8" inkscape:connector-curvature="0" inkscape:transform-center-x="-55.089859" inkscape:transform-center-y="-2.9761085" sodipodi:nodetypes="ccccccc" class="st0" d="
			M889,245.7l-25.8-44.6l-10.5,0L827,245.7l5.2,9.1l51.5,0L889,245.7z"/>
		
			<path id="path5720-2-1-8-2-3-54" inkscape:connector-curvature="0" inkscape:transform-center-x="-55.089863" inkscape:transform-center-y="-2.9761072" sodipodi:nodetypes="ccccccc" class="st0" d="
			M852.8,308.6L827,264l-10.5,0l-25.7,44.6l5.2,9.1l51.5,0L852.8,308.6z"/>
		
			<path id="path5720-2-1-8-2-3-07-4-3" inkscape:connector-curvature="0" inkscape:transform-center-x="-55.08986" inkscape:transform-center-y="2.9761171" sodipodi:nodetypes="ccccccc" class="st0" d="
			M889,263.9l-25.8,44.6l-10.5,0L827,263.9l5.2-9.1l51.5,0L889,263.9z"/>
		
			<path id="path5720-2-1-8-2-3-07-4-3-6-1" inkscape:connector-curvature="0" inkscape:transform-center-x="-55.08986" inkscape:transform-center-y="-2.976113" sodipodi:nodetypes="ccccccc" class="st0" d="
			M1034,496.9l-25.8-44.6l-10.5,0L972,496.9l5.2,9.1l51.5,0L1034,496.9z"/>
		<path id="path5720-2-1-8-2-5-3" inkscape:connector-curvature="0" sodipodi:nodetypes="ccccccc" class="st0" d="M888.9,496.8
			l-25.8-44.6l-10.5,0l-25.7,44.6l5.2,9.1l51.5,0L888.9,496.8z"/>
		<path id="path5720-2-1-8-2-5-3-2" inkscape:connector-curvature="0" sodipodi:nodetypes="ccccccc" class="st0" d="M961.6,496.9
			l-25.8-44.6l-10.5,0l-25.7,44.6l5.2,9.1l51.5,0L961.6,496.9z"/>
		<path id="path5720-2-1-8-2-5-3-3" inkscape:connector-curvature="0" sodipodi:nodetypes="ccccccc" class="st0" d="M925.3,452.3
			l-25.8,44.6l-10.5,0l-25.7-44.6l5.2-9.1l51.5,0L925.3,452.3z"/>
		<path id="path5720-2-1-8-2-5-3-21-9" inkscape:connector-curvature="0" sodipodi:nodetypes="ccccccc" class="st0" d="M889,515
			l-25.8,44.6l-10.5,0L827,515l5.2-9.1l51.5,0L889,515z"/>
		<path id="path5720-2-1-8-2-5-3-21-1" inkscape:connector-curvature="0" sodipodi:nodetypes="ccccccc" class="st0" d="M961.6,515.1
			l-25.8,44.6l-10.5,0l-25.7-44.6l5.2-9.1l51.5,0L961.6,515.1z"/>
		<path id="path5720-2-1-8-2-5-3-21-6" inkscape:connector-curvature="0" sodipodi:nodetypes="ccccccc" class="st0" d="M889.1,371.4
			l-25.8-44.6l-10.5,0l-25.7,44.6l5.2,9.1l51.5,0L889.1,371.4z"/>
		<path id="path5720-2-1-8-2-5-3-21-6-2" inkscape:connector-curvature="0" sodipodi:nodetypes="ccccccc" class="st0" d="
			M889.1,389.6l-25.8,44.6l-10.5,0l-25.7-44.6l5.2-9.1l51.5,0L889.1,389.6z"/>
		
			<path id="path5720-2-1-8-2-5-3-21-5-1" inkscape:connector-curvature="0" inkscape:transform-center-x="-81.999469" inkscape:transform-center-y="4.0002018" sodipodi:nodetypes="ccccccc" class="st0" d="
			M997.8,434.1L972,389.5l-10.5,0l-25.7,44.6l5.2,9.1l51.5,0L997.8,434.1z"/>
		
			<path id="path5720-2-1-8-2-3-07-4-3-3" inkscape:connector-curvature="0" inkscape:transform-center-x="-55.08986" inkscape:transform-center-y="2.9761171" sodipodi:nodetypes="ccccccc" class="st0" d="
			M852.8,326.8L827,371.4l-10.5,0l-25.7-44.6l5.2-9.1l51.5,0L852.8,326.8z"/>
		
			<path id="path5720-2-1-8-2-5-3-21-5-1-0" inkscape:connector-curvature="0" inkscape:transform-center-x="-81.99947" inkscape:transform-center-y="-4.0002058" sodipodi:nodetypes="ccccccc" class="st0" d="
			M1034,389.5l-25.8,44.6l-10.5,0L972,389.5l5.2-9.1l51.5,0L1034,389.5z"/>
		
			<path id="path5720-2-1-8-2-5-3-21-5-1-8" inkscape:connector-curvature="0" inkscape:transform-center-x="-81.999469" inkscape:transform-center-y="4.0002018" sodipodi:nodetypes="ccccccc" class="st0" d="
			M1034,371.3l-25.8-44.6l-10.5,0L972,371.3l5.2,9.1l51.5,0L1034,371.3z"/>
	</g>
</g>
</svg>
