<svg xmlns="http://www.w3.org/2000/svg" viewBox="0 0 279.7 430.7">
  <path d="M 134.6 421.4 L 108.8 376.8 H 98.3 L 72.6 421.4 L 77.8 430.5 H 129.3 L 134.6 421.4 Z M 207.2 421.5 L 181.4 376.9 H 170.9 L 145.2 421.5 L 150.4 430.6 H 201.9 L 207.2 421.5 Z M 62.1 170.4 L 36.3 125.8 H 25.8 L 0.1 170.4 L 5.3 179.5 H 56.8 L 62.1 170.4 Z M 279.6 314.1 L 253.8 358.7 H 243.3 L 217.6 314.1 L 222.8 305 H 274.3 L 279.6 314.1 Z M 62.1 314 L 36.3 358.6 H 25.8 L 0.1 314 L 5.3 304.9 H 56.8 L 62.1 314 Z M 243.4 251.3 L 217.6 295.9 H 207.1 L 181.4 251.3 L 186.6 242.2 H 238.1 L 243.4 251.3 Z M 170.9 233.1 L 145.1 188.5 H 134.6 L 108.9 233.1 L 114.1 242.2 H 165.6 L 170.9 233.1 Z M 170.8 107.5 L 145 62.9 H 134.5 L 108.8 107.5 L 114 116.6 H 165.5 L 170.8 107.5 Z M 62.1 295.8 L 36.3 251.2 H 25.8 L 0.1 295.8 L 5.3 304.9 H 56.8 L 62.1 295.8 Z M 98.3 358.6 L 72.5 314 H 62 L 36.3 358.6 L 41.5 367.7 H 93 L 98.3 358.6 Z M 243.4 358.7 L 217.6 314.1 H 207.1 L 181.4 358.7 L 186.6 367.8 H 238.1 L 243.4 358.7 Z M 98.3 376.8 L 72.5 421.4 H 62 L 36.3 376.8 L 41.5 367.7 H 93 L 98.3 376.8 Z M 98.3 233.1 L 72.5 188.5 H 62 L 36.3 233.1 L 41.5 242.2 H 93 L 98.3 233.1 Z M 98.3 251.2 L 72.5 295.8 H 62 L 36.3 251.2 L 41.5 242.1 H 93 L 98.3 251.2 Z M 243.4 376.9 L 217.6 421.5 H 207.1 L 181.4 376.9 L 186.6 367.8 H 238.1 L 243.4 376.9 Z M 170.8 125.7 L 145 170.3 H 134.5 L 108.8 125.7 L 114 116.6 H 165.5 L 170.8 125.7 Z M 134.6 44.7 L 108.8 0.1 H 98.3 L 72.6 44.7 L 77.8 53.8 H 129.3 L 134.6 44.7 Z M 98.4 107.6 L 72.6 63 H 62.1 L 36.4 107.6 L 41.6 116.7 H 93.1 L 98.4 107.6 Z M 134.6 62.9 L 108.8 107.5 H 98.3 L 72.6 62.9 L 77.8 53.8 H 129.3 L 134.6 62.9 Z M 279.6 295.9 L 253.8 251.3 H 243.3 L 217.6 295.9 L 222.8 305 H 274.3 L 279.6 295.9 Z M 134.5 295.8 L 108.7 251.2 H 98.2 L 72.5 295.8 L 77.7 304.9 H 129.2 L 134.5 295.8 Z M 207.2 295.9 L 181.4 251.3 H 170.9 L 145.2 295.9 L 150.4 305 H 201.9 L 207.2 295.9 Z M 170.9 251.3 L 145.1 295.9 H 134.6 L 108.9 251.3 L 114.1 242.2 H 165.6 L 170.9 251.3 Z M 134.6 314 L 108.8 358.6 H 98.3 L 72.6 314 L 77.8 304.9 H 129.3 L 134.6 314 Z M 207.2 314.1 L 181.4 358.7 H 170.9 L 145.2 314.1 L 150.4 305 H 201.9 L 207.2 314.1 Z M 134.7 170.4 L 108.9 125.8 H 98.4 L 72.7 170.4 L 77.9 179.5 H 129.4 L 134.7 170.4 Z M 134.7 188.6 L 108.9 233.2 H 98.4 L 72.7 188.6 L 77.9 179.5 H 129.4 L 134.7 188.6 Z M 243.4 233.1 L 217.6 188.5 H 207.1 L 181.4 233.1 L 186.6 242.2 H 238.1 L 243.4 233.1 Z M 98.4 125.8 L 72.6 170.4 H 62.1 L 36.4 125.8 L 41.6 116.7 H 93.1 L 98.4 125.8 Z M 279.6 188.5 L 253.8 233.1 H 243.3 L 217.6 188.5 L 222.8 179.4 H 274.3 L 279.6 188.5 Z M 279.6 170.3 L 253.8 125.7 H 243.3 L 217.6 170.3 L 222.8 179.4 H 274.3 L 279.6 170.3 Z" stroke="#FF0000" stroke-width="0.1" fill="#000000"/>
</svg>