<svg xmlns="http://www.w3.org/2000/svg" viewBox="754.4 201 279.7 430.7">
  <path d="M 889 622.4 l -25.8 -44.6 l -10.5 0 L 827 622.4 l 5.2 9.1 l 51.5 0 L 889 622.4 z M 961.6 622.5 l -25.8 -44.6 l -10.5 0 l -25.7 44.6 l 5.2 9.1 l 51.5 0 L 961.6 622.5 z M 816.5 371.4 l -25.8 -44.6 l -10.5 0 l -25.7 44.6 l 5.2 9.1 l 51.5 0 L 816.5 371.4 z M 1034 515.1 l -25.8 44.6 l -10.5 0 L 972 515.1 l 5.2 -9.1 l 51.5 0 L 1034 515.1 z M 816.5 515 l -25.8 44.6 l -10.5 0 L 754.5 515 l 5.2 -9.1 l 51.5 0 L 816.5 515 z M 997.8 452.3 L 972 496.9 l -10.5 0 l -25.7 -44.6 l 5.2 -9.1 l 51.5 0 L 997.8 452.3 z M 925.3 434.1 l -25.8 -44.6 l -10.5 0 l -25.7 44.6 l 5.2 9.1 l 51.5 0 L 925.3 434.1 z M 925.2 308.5 l -25.8 -44.6 l -10.5 0 l -25.7 44.6 l 5.2 9.1 l 51.5 0 L 925.2 308.5 z M 816.5 496.8 l -25.8 -44.6 l -10.5 0 l -25.7 44.6 l 5.2 9.1 l 51.5 0 L 816.5 496.8 z M 852.7 559.6 L 826.9 515 l -10.5 0 l -25.7 44.6 l 5.2 9.1 l 51.5 0 L 852.7 559.6 z M 997.8 559.7 L 972 515.1 l -10.5 0 l -25.7 44.6 l 5.2 9.1 l 51.5 0 L 997.8 559.7 z M 852.7 577.8 l -25.8 44.6 l -10.5 0 l -25.7 -44.6 l 5.2 -9.1 l 51.5 0 L 852.7 577.8 zM852.7,434.1
			l-25.8-44.6l-10.5,0l-25.7,44.6l5.2,9.1l51.5,0L852.7,434.1zM852.7,452.2
			l-25.8,44.6l-10.5,0l-25.7-44.6l5.2-9.1l51.5,0L852.7,452.2zM997.8,577.9L972,622.5l-10.5,0l-25.7-44.6l5.2-9.1l51.5,0L997.8,577.9zM925.2,326.7l-25.8,44.6l-10.5,0l-25.7-44.6l5.2-9.1l51.5,0L925.2,326.7zM889,245.7l-25.8-44.6l-10.5,0L827,245.7l5.2,9.1l51.5,0L889,245.7zM852.8,308.6L827,264l-10.5,0l-25.7,44.6l5.2,9.1l51.5,0L852.8,308.6zM889,263.9l-25.8,44.6l-10.5,0L827,263.9l5.2-9.1l51.5,0L889,263.9zM1034,496.9l-25.8-44.6l-10.5,0L972,496.9l5.2,9.1l51.5,0L1034,496.9zM888.9,496.8 l-25.8-44.6l-10.5,0l-25.7,44.6l5.2,9.1l51.5,0L888.9,496.8zM961.6,496.9
			l-25.8-44.6l-10.5,0l-25.7,44.6l5.2,9.1l51.5,0L961.6,496.9zM925.3,452.3
			l-25.8,44.6l-10.5,0l-25.7-44.6l5.2-9.1l51.5,0L925.3,452.3zM889,515
			l-25.8,44.6l-10.5,0L827,515l5.2-9.1l51.5,0L889,515zM961.6,515.1
			l-25.8,44.6l-10.5,0l-25.7-44.6l5.2-9.1l51.5,0L961.6,515.1zM889.1,371.4
			l-25.8-44.6l-10.5,0l-25.7,44.6l5.2,9.1l51.5,0L889.1,371.4zM889.1,389.6l-25.8,44.6l-10.5,0l-25.7-44.6l5.2-9.1l51.5,0L889.1,389.6zM997.8,434.1L972,389.5l-10.5,0l-25.7,44.6l5.2,9.1l51.5,0L997.8,434.1zM852.8,326.8L827,371.4l-10.5,0l-25.7-44.6l5.2-9.1l51.5,0L852.8,326.8zM1034,389.5l-25.8,44.6l-10.5,0L972,389.5l5.2-9.1l51.5,0L1034,389.5zM1034,371.3l-25.8-44.6l-10.5,0L972,371.3l5.2,9.1l51.5,0L1034,371.3z" stroke="#FF0000" stroke-width="0.1" fill="#000000"/>
</svg>