<svg xmlns="http://www.w3.org/2000/svg" viewBox="0 26.499999999999993 279.7 404.2">
  <path d="M134.6,421.4l-25.8-44.6H98.3l-25.7,44.6l5.2,9.1h51.5L134.6,421.4z M207.2,421.5l-25.8-44.6h-10.5l-25.7,44.6
	l5.2,9.1h51.5L207.2,421.5z M62.1,90.4L36.3,45.8H25.8L0.1,90.4l5.2,9.1h51.5L62.1,90.4z M279.6,284.1l-25.8,44.6h-10.5l-25.7-44.6
	l5.2-9.1h51.5L279.6,284.1z M62.1,284l-25.8,44.6H25.8L0.1,284l5.2-9.1h51.5L62.1,284z M243.4,201.3l-25.8,44.6h-10.5l-25.7-44.6
	l5.2-9.1h51.5L243.4,201.3z M170.9,173.1l-25.8-44.6h-10.5l-25.7,44.6l5.2,9.1h51.5L170.9,173.1z M62.1,255.8l-25.8-44.6H25.8
	L0.1,255.8l5.2,9.1h51.5L62.1,255.8z M98.3,338.6L72.5,294H62l-25.7,44.6l5.2,9.1H93L98.3,338.6z M243.4,338.7l-25.8-44.6h-10.5
	l-25.7,44.6l5.2,9.1h51.5L243.4,338.7z M98.3,366.8l-25.8,44.6H62l-25.7-44.6l5.2-9.1H93L98.3,366.8z M98.3,173.1l-25.8-44.6H62
	l-25.7,44.6l5.2,9.1H93L98.3,173.1z M98.3,201.2l-25.8,44.6H62l-25.7-44.6l5.2-9.1H93L98.3,201.2z M243.4,366.9l-25.8,44.6h-10.5
	l-25.7-44.6l5.2-9.1h51.5L243.4,366.9z M170.8,35.7L145,80.3h-10.5l-25.7-44.6l5.2-9.1h51.5L170.8,35.7z M279.6,255.9l-25.8-44.6
	h-10.5l-25.7,44.6l5.2,9.1h51.5L279.6,255.9z M134.5,255.8l-25.8-44.6H98.2l-25.7,44.6l5.2,9.1h51.5L134.5,255.8z M207.2,255.9
	l-25.8-44.6h-10.5l-25.7,44.6l5.2,9.1h51.5L207.2,255.9z M170.9,201.3l-25.8,44.6h-10.5l-25.7-44.6l5.2-9.1h51.5L170.9,201.3z
	 M134.6,284l-25.8,44.6H98.3L72.6,284l5.2-9.1h51.5L134.6,284z M207.2,284.1l-25.8,44.6h-10.5l-25.7-44.6l5.2-9.1h51.5L207.2,284.1z
	 M134.7,90.4l-25.8-44.6H98.4L72.7,90.4l5.2,9.1h51.5L134.7,90.4z M134.7,118.6l-25.8,44.6H98.4l-25.7-44.6l5.2-9.1h51.5
	L134.7,118.6z M243.4,173.1l-25.8-44.6h-10.5l-25.7,44.6l5.2,9.1h51.5L243.4,173.1z M98.4,35.8L72.6,80.4H62.1L36.4,35.8l5.2-9.1
	h51.5L98.4,35.8z M279.6,118.5l-25.8,44.6h-10.5l-25.7-44.6l5.2-9.1h51.5L279.6,118.5z M279.6,90.3l-25.8-44.6h-10.5l-25.7,44.6
	l5.2,9.1h51.5L279.6,90.3z" stroke="#FF0000" stroke-width="0.1" fill="#000000"/>
</svg>