<?xml version="1.0" encoding="utf-8"?>
<!-- Generator: Adobe Illustrator 23.1.0, SVG Export Plug-In . SVG Version: 6.00 Build 0)  -->
<svg version="1.1" id="Ebene_1" xmlns="http://www.w3.org/2000/svg" xmlns:xlink="http://www.w3.org/1999/xlink" x="0px" y="0px"
	 viewBox="0 0 279.7 382.2" style="enable-background:new 0 0 279.7 382.2;" xml:space="preserve">
<style type="text/css">
	.st0{stroke:#FFFFFF;stroke-width:0.1;}
</style>
<path class="st0" d="M79.6,185.8l44.6-25.8v-10.5l-44.6-25.7l-9.1,5.2v51.5L79.6,185.8z M137.9,293.1l0-51.5l-9.1-5.2l-44.6,25.8
	l0,10.5l44.6,25.8L137.9,293.1z M80.1,257.4l44.6-25.8v-10.5l-44.6-25.7l-9.1,5.2l0,51.5L80.1,257.4z M133.9,159.5l-44.6,25.8v10.5
	l44.6,25.7l9.1-5.2l0-51.5L133.9,159.5z M142.7,241.8l0,51.5l9.1,5.2l44.6-25.8l0-10.5l-44.6-25.8L142.7,241.8z M196.2,277.8
	l-44.6,25.8v10.5l44.6,25.7l9.1-5.2l0-51.5L196.2,277.8z M142.6,324.4l0,51.5l9.1,5.2l44.6-25.8l0-10.5l-44.6-25.8L142.6,324.4z
	 M137.9,139.2l0-51.5l-9.1-5.2l-44.6,25.8l0,10.5l44.6,25.8L137.9,139.2z M143,5.2l0,51.5l9.1,5.3l44.6-25.8l0-10.5L152.1-0.1
	L143,5.2z M196.5,41.2L151.9,67l0,10.5l44.6,25.7l9.1-5.2l0-51.5L196.5,41.2z M142.9,87.8l0,51.5l9.1,5.3l44.6-25.8l0-10.5L152,82.6
	L142.9,87.8z"/>
</svg>
