<svg xmlns="http://www.w3.org/2000/svg" viewBox="52.775 11.525 101.52499999999999 286.09999999999997">
  <path d="M 59.7 151.05 l 33.45 -19.35 v -7.875 l -33.45 -19.275 l -6.825 3.9 v 38.625 L 59.7 151.05 z M 103.425 231.525 l 0 -38.625 l -6.825 -3.9 l -33.45 19.35 l 0 7.875 l 33.45 19.35 L 103.425 231.525 z M 60.075 204.675 l 33.45 -19.35 v -7.875 l -33.45 -19.275 l -6.825 3.9 l 0 38.625 L 60.075 204.675 z M 100.425 131.325 l -33.45 19.35 v 7.875 l 33.45 19.275 l 6.825 -3.9 l 0 -38.625 L 100.425 131.325 z M 107.025 193.05 l 0 38.625 l 6.825 3.9 l 33.45 -19.35 l 0 -7.875 l -33.45 -19.35 L 107.025 193.05 z M 147.15 220.05 l -33.45 19.35 v 7.875 l 33.45 19.275 l 6.825 -3.9 l 0 -38.625 L 147.15 220.05 z M 106.95 255 l 0 38.625 l 6.825 3.9 l 33.45 -19.35 l 0 -7.875 l -33.45 -19.35 L 106.95 255 z M 103.425 116.1 l 0 -38.625 l -6.825 -3.9 l -33.45 19.35 l 0 7.875 l 33.45 19.35 L 103.425 116.1 z M 107.25 15.6 l 0 38.625 l 6.825 3.975 l 33.45 -19.35 l 0 -7.875 l -33.45 -19.35 L 107.25 15.6 z M 147.375 42.6 l -33.45 19.35 l 0 7.875 l 33.45 19.275 l 6.825 -3.9 l 0 -38.625 L 147.375 42.6 z M 107.175 77.55 l 0 38.625 l 6.825 3.975 l 33.45 -19.35 l 0 -7.875 L 114 73.65 L 107.175 77.55 z" stroke="#FF0000" stroke-width="0.1" fill="#000000"/>
</svg>