<?xml version="1.0" encoding="utf-8"?>
<!-- Generator: Adobe Illustrator 23.1.0, SVG Export Plug-In . SVG Version: 6.00 Build 0)  -->
<svg version="1.1" id="Ebene_1" xmlns="http://www.w3.org/2000/svg" xmlns:xlink="http://www.w3.org/1999/xlink" x="0px" y="0px"
	 viewBox="0 0 28.2 55.3" style="enable-background:new 0 0 28.2 55.3;" xml:space="preserve">
<style type="text/css">
	.st0{display:none;}
	.st1{display:inline;}
	.st2{fill:#FFE99D;}
	.st3{fill:#848484;}
</style>
<g id="Layer_2" class="st0">
	<g id="al" class="st1">
		<path class="st2" d="M27,27.2c0-0.4,0-0.7,0.2-1.1c0.1-0.2,0.2-0.3,0.2-0.5c0.2-0.4,0.3-0.8,0.4-1.2c0.3-0.9,0.4-1.9,0.3-2.8
			l-1.4,0.3c0.6-2,1-4.1,1.1-6.2c0-0.1-0.8,0.1-0.8,0.1c-0.3,0.1-0.5,0.3-0.6,0.5c-0.1-0.3-0.1-0.6,0-0.9c0.1-0.4,0.1-0.8,0-1.3
			c-0.1-1-0.4-1.9-0.7-2.8c-0.4,0-0.8,0.1-1.1,0.4c-0.2,0.1-0.3,0.3-0.4,0.5c-0.2,0.3-0.1,0.4-0.5,0.5c0-0.6-0.2-1.3-0.3-1.9
			c-0.1-0.4-0.4-0.7-0.8-0.4c-0.7,0.3-1.5,0.6-1.9-0.3C20.4,9.7,20.2,9.4,20,9c-0.1-0.1-0.3-1.4-0.4-1.4c-0.5-0.1-1,0-1.3,0.3
			c-1,0.6-1.2-1.2-1.2-1.8c0-2,0-4.1,0-6.1c-1.3,0.8-2.4,1.9-3.1,3.2c-1,1.5-1.7,3.2-3.2,4.1C10.1,7.8,9.3,8,8.5,8
			c-0.3,1.2-0.7,2.4-1.3,3.5c-0.8,0-1.7-0.2-2.4-0.6c-0.3,0.9-0.6,1.8-0.9,2.7c-0.1,0.6-0.2,1.1-0.3,1.7c-0.1,0.6-0.5,0.7-1,0.9
			c-0.6,0.2-1.1,0.7-1.3,1.3c-0.1,1,0.1,2.1,0.6,2.9c-0.1-0.1-1.6,0.2-1.8,0.3l2.1,3.8c-0.4,0.2-0.8,0.1-1.2,0s-0.9,0-1,0.4
			s0.3,1,0.5,1.3c0.4,0.4,0.5,1,0.2,1.5c-0.3,0.6,0,1,0.4,1.5c0.5,0.7,1,1.5,1.4,2.2c0.2,0.4,0.4,0.8,0.6,1.2c0,0.1,0.4,0.8,0.5,1.1
			c3,3,6.5,5.4,10.3,7.2c0.1-0.8,0.2-1.6,0.2-2.3c-0.2,0.1-0.4,0.1-0.5,0l0,0l0,0c-1.2-0.8-2.2-1.8-3.1-2.9
			c-0.9-1.1-1.7-2.2-2.6-3.2s-2-1.8-3-2.7c-1.1-0.9-1.9-2.1-2.3-3.4c0.5,1.2,1.4,2.3,2.4,3.2c1,0.9,2.2,1.6,3.2,2.5s2,2,2.9,3
			c0.9,1,1.9,1.8,3,2.5h0.1c0.1-0.7,0.1-1.3,0.1-2v-0.1c0-0.2,0-0.3,0-0.5c-0.1,0-0.2-0.1-0.3-0.2l0,0c-0.8-1.2-1.8-2.3-2.9-3.3
			c-1.1-1-2.2-2-3.3-3c-1.1-1-2.2-2.1-3.1-3.3c-0.9-1.2-1.6-2.5-2.1-4c0.5,1.4,1.3,2.7,2.3,3.8c1,1.1,2.1,2.1,3.3,3.1
			c1.2,1,2.4,1.9,3.6,2.8c0.9,0.7,1.7,1.5,2.5,2.3c-0.1-1-0.2-1.9-0.2-2.8l-5.3-6.1C7.8,23,6.8,21.9,6,20.7
			c-0.4-0.6-0.8-1.2-1.2-1.8c-0.2-0.3-0.3-0.7-0.4-1c-0.1-0.4-0.1-0.7,0-1.1c-0.1,0.3,0,0.7,0.1,1c0.1,0.3,0.3,0.6,0.5,0.9
			c0.4,0.6,0.8,1.2,1.3,1.7c0.9,1.1,1.9,2.1,2.9,3.1l4.7,4.7c-0.1-1.3-0.1-2.5-0.2-3.8c-0.2,0-0.3,0-0.4-0.1v0L11.1,22
			c-0.7-0.8-1.4-1.5-2.1-2.3C8.3,18.9,7.7,18,7.3,17c-0.5-1-0.8-2-1-3c0.6,2,1.7,3.8,3.1,5.2c0.7,0.7,1.5,1.4,2.3,2l2,1.7
			c0-1.1,0-2.2,0-3.3c-0.2,0-0.3,0-0.5-0.1l-0.1,0l0,0c-1.2-1.2-2.3-2.5-3.1-4C9.7,14.8,9.3,14,9,13.3c-0.1-0.4-0.2-0.8-0.3-1.2
			c0-0.4-0.2-0.7-0.4-1c0.3,0.3,0.4,0.7,0.5,1.1c0.1,0.4,0.2,0.8,0.4,1.1c0.4,0.7,0.8,1.4,1.4,2c0.9,1.2,2,2.2,3.2,3.1v-1.3
			c-0.1-0.1-0.1-0.3-0.1-0.4l0,0v0v-0.3c0-0.4,0-0.8,0-1.2v-0.4c-0.1,0-0.3,0-0.3-0.1l0,0c-0.5-0.9-0.9-1.9-1.3-2.8
			c-0.2-0.5-0.4-1-0.5-1.4c-0.2-0.5-0.3-1-0.1-1.5c0,0.5,0.1,1,0.3,1.4c0.2,0.5,0.4,0.9,0.7,1.4c0.4,0.7,0.8,1.5,1.2,2.2
			c-0.1-3.2,0.5-6.3,1.7-9.3c-1,3-1.5,6.3-1.3,9.5c0,0.4,0.1,0.8,0.1,1.2V16c1.5-2.1,3.1-4.1,4.8-6.1c-1.7,2.3-3.3,4.7-4.8,7.2
			l0.1,1.7c0,0.7,0,1.4,0.1,2c1-1.4,2.1-2.7,3.3-3.9c0.6-0.7,1.3-1.4,2-2.1c0.7-0.6,1.3-1.4,1.8-2.2c-0.4,0.9-0.9,1.6-1.5,2.3
			c-0.6,0.7-1.2,1.5-1.7,2.2c-1.1,1.5-2.1,3.1-3.1,4.7c-0.1,0.2-0.4,0.3-0.6,0.3c0,0.4,0,0.9,0.1,1.3l0.1,1.5
			c0.9-0.5,1.7-1.2,2.4-2.1l2.3-2.7l4.7-5.4l-4.2,5.8l-2.1,2.9c-0.7,1.1-1.6,2-2.7,2.7l0,0c-0.1,0.1-0.2,0.1-0.4,0.1
			c0.1,1.1,0.2,2.1,0.3,3.2l0.2,0.2c0.1,0.1,0.2,0.3,0.2,0.4c0.5-0.6,1.1-1.2,1.7-1.8c1-0.9,2-1.8,2.9-2.8s1.7-2,2.6-3
			c0.9-1.1,2-1.8,3.3-2.3c-1.2,0.5-2.2,1.4-3,2.5c-0.8,1-1.5,2.2-2.4,3.2s-1.8,2-2.7,3c-0.9,1-1.7,2-2.3,3.1l-0.1,0.1
			c0,0.3,0.1,0.6,0.1,0.9l0.2,1.1c1.7-1.4,3.3-2.8,4.8-4.3c1-0.9,1.9-1.8,2.8-2.8c0.9-1,1.9-1.8,3.1-2.5c-1.1,0.7-2,1.6-2.8,2.7
			c-0.8,1-1.7,2-2.6,3c-1.7,1.8-3.4,3.5-5.2,5.3c0,0.8,0,1.6,0,2.4c0,0.2,0,0.4,0,0.6c1.5-1.3,2.8-2.7,4.3-4.1
			c0.9-0.9,1.9-1.7,3-2.4c1.1-0.7,2.2-1.3,3.4-1.6c-1.2,0.5-2.3,1.1-3.2,1.9c-1,0.8-1.9,1.6-2.8,2.6c-1.6,1.7-3.1,3.6-4.8,5.3
			c0,0.8-0.1,1.6,0,2.4l0,0c0,0.3-0.1,0.5-0.3,0.7c-0.3,0-0.7,0-1,0c-0.2-0.1-0.4-0.4-0.4-0.7l0,0c0-0.2,0-0.4,0-0.6
			c-3.9-2.2-7.4-5-10.3-8.4L2,33.9c0.2,0.6,0.4,1.1,0.5,1.7c0.2,0.6,0.6,1.1,1,1.6c0.8,1.1,1.7,2.1,2.8,3c1.1,1,2.4,1.8,3.7,2.5
			c0.6,0.4,1.3,0.7,2,1c0.4,0.1,0.7,0.3,1.1,0.4c0.3,0.1,0.5,0.2,0.8,0.3c-0.2,1.6-0.6,3.3-1.2,4.8c-0.7,1.8-2,3.3-3.6,4.2l0,0l0,0
			c-0.5,0.3-0.7,0.9-0.4,1.4c0.3,0.5,0.9,0.7,1.4,0.4c1-0.6,1.9-1.4,2.7-2.4c0.7-0.9,1.3-1.9,1.7-3c0.7-1.9,1.1-3.9,1.1-5.9l0,0
			c0.8-0.5,1.8-0.7,2.7-1.1c1.8-0.9,3.4-2.2,4.7-3.8c0.2-0.3,0.4-0.6,0.5-0.9c0.2-0.4,0.6-0.8,0.9-1.2c0.1-0.1,0.7-1.3,0.7-1.3h-0.3
			h-1.2c0.2-0.6,0.5-1.1,0.8-1.6c1.1-1.3,2-2.7,3-4.1c0.4-0.4,0.6-1,0.7-1.5C28,27.7,27.5,27.1,27,27.2z"/>
	</g>
</g>
<g>
	<g id="Ebene_1-2">
		<path class="st3" d="M14.3,27.9l0.4-0.8c1.4-0.4,2.8-1.3,3.8-2.4c0.9-1.2,1.5-2.6,1.8-4l4.1-8.7c0,0,0-0.1,0-0.1c0,0-0.1,0-0.1,0
			l-4.1,8.6c-1.4,0.5-2.7,1.3-3.7,2.4c-0.9,1.1-1.5,2.5-1.7,3.9l-0.3,0.7v-3.8l0.4-0.9c1.4-0.4,2.7-1.3,3.7-2.4
			c0.9-1.2,1.5-2.6,1.8-4l4.1-8.7c0,0,0-0.1,0-0.1c0,0-0.1,0-0.1,0l0,0l-4.1,8.6c-0.9,0.3-1.7,0.7-2.4,1.2l3.5-9.7
			c0,0,0-0.1-0.1-0.1c0,0-0.1,0-0.1,0l-3.6,10c-0.4,0.3-0.7,0.6-1,1c-0.2,0.3-0.5,0.6-0.7,0.9l3.5-16.1c0,0,0-0.1-0.1-0.1
			c0,0-0.1,0-0.1,0.1c0,0,0,0,0,0L15.4,20c-0.4,0.8-0.6,1.6-0.8,2.5l-0.4,0.8v-1.8c0.8-1.5,1.2-3.2,1.2-4.9c0-1.8-0.5-3.5-1.3-5.1
			v-11c0,0,0-0.1-0.1-0.1c0,0-0.1,0-0.1,0.1c0,0,0,0,0,0l0,0v11.1c-0.8,1.6-1.2,3.3-1.2,5c0,1.7,0.5,3.4,1.2,4.9v1.8l-0.4-0.8
			c-0.1-0.7-0.3-1.4-0.6-2.1L9.2,3.3c0,0,0-0.1-0.1-0.1c0,0-0.1,0-0.1,0.1c0,0,0,0,0,0l0,0l3.6,16.2c-0.5-0.8-1.1-1.5-1.8-2.1
			L7.2,7.6c0,0-0.1,0-0.1,0c0,0,0,0,0,0.1l3.5,9.7c-0.7-0.5-1.5-0.9-2.4-1.2L4,7.5c0,0-0.1-0.1-0.1,0s-0.1,0.1,0,0.1c0,0,0,0,0,0
			L8,16.2c0.2,1.5,0.8,2.9,1.8,4c1,1.1,2.3,2,3.8,2.4l0.4,0.8v3.8l-0.4-0.8c-0.3-1.3-0.8-2.6-1.7-3.7c-1-1.1-2.3-1.9-3.7-2.4L4,11.8
			c0,0-0.1-0.1-0.1,0s-0.1,0.1,0,0.1L8,20.5c0.2,1.5,0.8,2.9,1.8,4c1,1.1,2.4,2,3.8,2.4l0,0l0.4,0.7v4l-0.5-0.9
			c-0.2-1.3-0.8-2.6-1.7-3.7c-1-1.1-2.3-1.9-3.7-2.4L4,16.1c0,0-0.1-0.1-0.1,0c0,0-0.1,0.1,0,0.1L8,24.8c0.2,1.5,0.8,2.9,1.8,4
			c1,1.1,2.4,2,3.8,2.4l0,0L14,32v4l-0.5-0.9c-0.3-1.3-0.8-2.6-1.7-3.7c-1-1.1-2.3-1.9-3.7-2.4L4,20.4c0,0-0.1-0.1-0.1,0
			c0,0-0.1,0.1,0,0.1L8,29.1c0.2,1.5,0.8,2.9,1.8,4c1,1.1,2.4,2,3.8,2.4l0,0l0.4,0.8v4.2l-0.5-1c-0.2-1.4-0.8-2.8-1.7-3.9
			c-1-1.1-2.3-1.9-3.7-2.4L4,24.6c0,0-0.1-0.1-0.1,0c0,0-0.1,0.1,0,0.1L8,33.4c0.2,1.5,0.8,2.9,1.8,4c1,1.1,2.3,2,3.7,2.4L14,41
			l0.1,13.8c0,0.1,0.1,0.2,0.2,0.2c0,0,0,0,0,0l0,0c0.1,0,0.2-0.1,0.2-0.2l0,0l-0.1-13.9l0.4-1.1c1.4-0.4,2.7-1.3,3.7-2.3
			c0.9-1.2,1.5-2.6,1.8-4l4.1-8.7c0,0,0-0.1,0-0.1c0,0-0.1,0-0.1,0l-4.1,8.6c-1.4,0.5-2.7,1.3-3.7,2.4c-1,1.2-1.6,2.7-1.8,4.2
			l-0.2,0.5v-4.1l0.4-0.8c1.4-0.4,2.7-1.3,3.7-2.4c0.9-1.2,1.5-2.6,1.8-4l4.1-8.7c0,0,0-0.1,0-0.1c0,0-0.1,0-0.1,0l0,0L20.1,29
			c-1.4,0.5-2.7,1.3-3.7,2.4c-0.9,1.1-1.5,2.5-1.7,3.9l-0.3,0.6v-3.8l0.4-0.8c1.4-0.5,2.7-1.3,3.7-2.4c0.9-1.2,1.5-2.6,1.8-4
			l4.1-8.7c0,0,0-0.1,0-0.1c0,0-0.1,0-0.1,0l-4.1,8.6c-1.4,0.5-2.7,1.3-3.7,2.4c-0.9,1.1-1.5,2.5-1.7,3.9l-0.3,0.7L14.3,27.9z"/>
	</g>
</g>
</svg>
