<svg id="Ebene_1" data-name="Ebene 1" xmlns="http://www.w3.org/2000/svg" viewBox="0 0 501.92 512.01"><title>window-open</title><path d="M37.5,1.4c-3.7,1.7-8,6.2-9.4,9.9C27.3,13.2,27,51.7,27,134V253.9l2.2,2.1a7.74,7.74,0,0,0,10.6-.3l2.2-2.3V135.8C42,30.2,42.2,18,43.6,16.6S65.6,15,256,15s211,.2,212.4,1.6S470,30.2,470,136.1c0,116.6,0,117.9,2,119.9,2.6,2.6,9,2.7,11.3.2,1.6-1.7,1.7-11.6,1.7-122.1,0-99.8-.2-120.7-1.4-123.4a19.68,19.68,0,0,0-9.9-9.6c-2-.8-68.3-1.1-218-1.1C78.1.1,40,.3,37.5,1.4Z" transform="translate(-5.04 0)"/><path d="M68.5,41.5,66,43.9V459H42V282.3l-2.3-2.1c-3-2.8-8-2.9-10.7-.2-2,2-2,3.3-2,90.5V459H24.3c-8.2,0-16.4,5.4-18.4,11.9-.7,2.2-1,9.1-.8,17.2.4,13.1.5,13.7,3.2,17.2C13.9,512.6-9,512,256,512s242.1.6,247.7-6.7c2.7-3.5,2.8-4.1,3.2-17.2.2-8.1-.1-15-.8-17.2-2-6.5-10.2-11.9-18.3-11.9H485V370.5c0-87.2,0-88.5-2-90.5-2.7-2.7-8.3-2.7-11,.2-2,2.2-2,3-2,90.5V459H446V43.9l-2.5-2.4L441.1,39H70.9ZM398,56.9c-1.9,1-19.9,9.6-40,19.1s-37.7,18.4-39.3,19.8a15.43,15.43,0,0,0-3.7,6.1c-1.3,4.9-1.4,323.3,0,328,1.9,6.7,4.5,8.2,32.6,18.7l26.5,9.9-59.1.3c-32.4.1-85.6.1-118,0l-59.1-.3,26.5-9.9c28.1-10.5,30.7-12,32.6-18.7,1.4-4.7,1.3-323.1,0-328a15.43,15.43,0,0,0-3.7-6.1C191.7,94.4,174.1,85.5,154,76s-38.1-18.1-40-19.1c-3.4-1.8,0-1.8,142-1.8S401.4,55.1,398,56.9ZM132.5,83.3l49,23.3V425.3l-44.9,16.9C101.1,455.5,90.7,459,86.8,459H82V259.5c0-109.7.3-199.5.8-199.5S105.6,70.5,132.5,83.3ZM430,259.5V459h-4.8c-3.9,0-14.3-3.5-49.8-16.8l-44.9-16.9V106.6l49-23.3c27-12.8,49.3-23.3,49.8-23.3S430,149.8,430,259.5ZM491,486v11H21V475H491Z" transform="translate(-5.04 0)"/><path d="M98.3,95.4l-2.8,2.4v155l2.4,2.6,2.4,2.6h58.6l2.8-2.4,2.8-2.4.3-64.3c.2-56.6.1-64.5-1.3-66.6-2.2-3.4-54.3-29.3-58.9-29.3A10.1,10.1,0,0,0,98.3,95.4ZM149,187v56H111V112l19,9.5,19,9.5Z" transform="translate(-5.04 0)"/><path d="M98.3,270.4l-2.8,2.4-.3,76.7c-.3,86.2-.6,82.4,6.7,84.6,3.5,1.1,5.1.6,28.7-8.6,29.8-11.7,32.2-12.8,33.4-16.1.6-1.5,1-28.6,1-68,0-72.1.2-70.1-6.1-72.3-2-.7-13.1-1.1-30.5-1.1H101.1ZM139.2,284H149l-.2,58.7-.3,58.7L130,408.7c-10.1,4-18.5,7.3-18.7,7.3s-.3-30-.3-66.6V282.7l9.2.7C125.2,283.7,133.7,284,139.2,284Z" transform="translate(-5.04 0)"/><path d="M376.8,106.5c-17.2,8.7-27.3,14.3-28.3,15.8-1.4,2.1-1.5,10-1.3,66.6l.3,64.3,2.8,2.4,2.8,2.4h58.6l2.4-2.6,2.4-2.6V97.8l-2.8-2.4C408.6,91.1,406,91.9,376.8,106.5Zm24.2,71V243H363V131l18.8-9.4c10.3-5.2,18.8-9.5,19-9.5S401,141.5,401,177.5Z" transform="translate(-5.04 0)"/><path d="M352.5,269.4a9.31,9.31,0,0,0-4.3,4c-1.6,3.5-1.8,133.7-.2,136.7,1.5,2.6,4.9,4.2,33.4,15.4,23.6,9.2,25.2,9.7,28.7,8.6,7.3-2.2,7,1.6,6.7-84.6l-.3-76.7-2.8-2.4-2.8-2.4H383.2C362.5,268.1,354.7,268.4,352.5,269.4ZM401,349.5c0,36.6-.3,66.5-.7,66.4s-8.9-3.3-18.8-7.3l-18-7.2-.3-58.7-.2-58.6,13.2-.4c7.3-.1,15.9-.4,19.1-.5l5.7-.2Z" transform="translate(-5.04 0)"/></svg>