<svg id="Ebene_1" data-name="Ebene 1" xmlns="http://www.w3.org/2000/svg" viewBox="0 0 505 512"><title>window-closed</title><path d="M39.3,2C32.5,6.1,33-8.3,33,183.4V356.9l2.6,2c3.4,2.7,6.4,2.7,9.8,0l2.6-2V15H464V47c0,31.6,0,31.9,2.2,34a7.74,7.74,0,0,0,10.6-.3c2.2-2.3,2.2-2.8,2.2-36.6,0-37.8-.1-38.4-6.3-42.1C469.6,0,466,0,256,0S42.4,0,39.3,2Z" transform="translate(-3.5 0)"/><path d="M77.1,32a15.18,15.18,0,0,0-10.3,8.1C65.1,43.3,65,55.4,65,251.2V459H48V384.3l-2.3-2.1c-2.9-2.8-6.7-2.8-10.1-.1l-2.6,2v74.7l-9.9.4c-10.7.3-13.2,1.3-17.5,7.2-1.9,2.5-2.1,4.1-2.1,18.9,0,18.1.8,21.1,6.8,24.7,3.2,2,6.9,2,245.7,2s242.5,0,245.7-2c6-3.6,6.8-6.6,6.8-24.7,0-14.8-.2-16.4-2.1-18.9-4.3-5.9-6.8-6.9-17.5-7.2l-9.9-.4V283c0-170.3-.1-175.9-1.9-178.1-2.3-2.9-8.1-3.1-11.1-.4l-2,1.8V459H447l-.2-208.9-.3-209-2.1-2.8a23.45,23.45,0,0,0-5.5-4.8c-3.4-2-5.3-2-180.9-2.2C160.4,31.3,79,31.6,77.1,32ZM431.8,253.2,432,459H80V253.7c0-113,.3-205.7.7-206s79.4-.6,175.7-.5l175.1.3ZM493,486v11H19V475H493Z" transform="translate(-3.5 0)"/><path d="M99.5,62c-6.9,4.5-6.5-.6-6.5,91.5,0,92.7-.4,87.7,7,92,3.4,2,4.9,2,71.5,2h68l3.3-2.3c6.5-4.7,6.2.3,6.2-91.2,0-92.1.3-88-6.4-92.1-3-1.8-6.3-1.9-71.6-1.9C104.5,60,102.4,60.1,99.5,62ZM234,153.5V232H108V75H234Z" transform="translate(-3.5 0)"/><path d="M269.4,61.9c-6.7,4.1-6.4,0-6.4,92.1,0,91.5-.3,86.5,6.2,91.2l3.3,2.3h68c66.6,0,68.1,0,71.5-2,7.4-4.3,7,.7,7-91.8,0-91.8.3-87.5-6.5-91.7-3.2-2-4.8-2-71.6-2C275.7,60,272.4,60.1,269.4,61.9ZM404,153.5V232H278V75H404Z" transform="translate(-3.5 0)"/><path d="M101,264.8a16.31,16.31,0,0,0-5.7,5.1L93,273.3v83.6c0,81.7.1,83.7,2,86.9a18.4,18.4,0,0,0,5.2,5.2c3.2,1.9,5.2,2,70.6,2,72.9,0,69.9.2,75.2-5.5l2.5-2.7.3-84.7.2-84.8-2.3-3.4c-4.8-7.2-1.5-6.9-75.7-6.9C109.7,263,104.2,263.1,101,264.8Zm133,92.7V436H108V279H234Z" transform="translate(-3.5 0)"/><path d="M271,264.8a16.31,16.31,0,0,0-5.7,5.1l-2.3,3.4.2,84.8.3,84.7,2.5,2.7c5.3,5.7,2.3,5.5,75.2,5.5,65.4,0,67.4-.1,70.6-2a18.4,18.4,0,0,0,5.2-5.2c1.9-3.2,2-5.2,2-86.9V273.3l-2.3-3.4c-4.8-7.2-1.6-6.9-75.7-6.9C279.7,263,274.2,263.1,271,264.8Zm133,92.7V436H278V279H404Z" transform="translate(-3.5 0)"/></svg>